<svg id="a276d039-f288-4754-a2a5-d0ac53a0c33a" data-name="Calque 1" xmlns="http://www.w3.org/2000/svg" xmlns:xlink="http://www.w3.org/1999/xlink" viewBox="0 0 177 85"><defs><mask id="6de3089d-71bd-43f8-a4a2-2868d4d56e59" x="42.01" y="67.18" width="11.18" height="17.61" maskUnits="userSpaceOnUse"><g id="e360d25a-2561-49ff-a7a5-4b4d8f4b55e9" data-name="mask-2"><polygon id="ccb5fe09-19c4-4739-9d71-b73979865c6d" data-name="path-1" points="42.02 67.18 53.19 67.18 53.19 84.79 42.02 84.79 42.02 67.18" style="fill:#fff"/></g></mask><mask id="0c39b9bc-0159-4c23-8d02-afc1dcd3d369" x="143.04" y="67.18" width="13.71" height="17.61" maskUnits="userSpaceOnUse"><g id="efc0c4c2-d245-4ecc-88e3-b6ceab709ccf" data-name="mask-4"><polygon id="cb3f8d40-6207-4f76-8f33-506d8ea070bc" data-name="path-3" points="143.04 67.18 156.74 67.18 156.74 84.79 143.04 84.79 143.04 67.18" style="fill:#fff"/></g></mask><mask id="395629b3-bf68-48a6-aef8-5a6e8b84fc00" x="163.88" y="67.25" width="13.18" height="17.39" maskUnits="userSpaceOnUse"><g id="693a59a6-9cb0-40a9-9ff7-73b267da934c" data-name="mask-6"><polygon id="6fc36a53-c412-4c6a-9c33-2b23b1488265" data-name="path-5" points="163.88 67.25 177.06 67.25 177.06 84.64 163.88 84.64 163.88 67.25" style="fill:#fff"/></g></mask></defs><title>logo_westelynck</title><g id="61e9ea27-ed3c-47c5-ad94-dcd0945bc811" data-name="Symbols"><g id="2c87e184-148f-4268-9852-279256a5f348" data-name="HEADER---large"><g id="b6cb86d1-d1a1-4508-830f-c0f1217def4f" data-name="LOGO-W-Copy"><path id="8d47f6df-af2d-41c8-8e78-5cffc1bc00f2" data-name="Fill-1" d="M63.37,0H58l4.45,15.75C64.61,17.2,66.84,18.65,69,20Z" style="fill:#474749"/><path id="ac1cb46b-a89c-4753-aea3-77cac8e8e402" data-name="Fill-3" d="M91,11l4.85,14.29.68-.46.42-.29c1-.72,2-1.38,3-2L93.14,2H88.86L80,28.2a16.64,16.64,0,0,0,4.8.8Z" style="fill:#474749"/><path id="f8ba11dd-88eb-450b-acb7-eb829b3fc2f2" data-name="Fill-5" d="M73.9,43.46,72,35.94A37.73,37.73,0,0,1,66,32l5.15,20h4.51L80,38.63a23.66,23.66,0,0,1-4.24-1.05Z" style="fill:#474749"/><path id="d6c25d2c-281f-4988-a726-890d9c5a002f" data-name="Fill-7" d="M97.6,25.53l-.42.29c-4.68,3.24-12,7-21.42,2.47-7.86-3.78-21.6-13.95-27.23-18.22a.33.33,0,0,0-.45.48C52.83,16,64.62,29.09,73.38,33.31A24.14,24.14,0,0,0,84.21,36c4.43,0,9.9-1.31,16.09-5.6l.43-.29a53,53,0,0,1,10.8-6.05L113,18.57c-5.89.79-11.89,4.51-15.4,7" style="fill:#ce8a2c"/><path id="5918d5a6-4c2c-46ab-89e5-578f82f98056" data-name="Fill-9" d="M130.94,30.53c-3.32-4.45-4.11-6-8.63-9.5a11,11,0,0,0-4.25-2L117,22.89a8.92,8.92,0,0,1,4.7.91c3.72,2,7,5.41,8.7,7.1.27.27.77-.07.54-.37" style="fill:#ce8a2c"/><path id="df8fd122-409e-4fa4-9b9f-611ffbe8729b" data-name="Fill-11" d="M118.65,0,106.92,43.38l-3.86-11.32-.28.18-.43.3c-1.11.76-2.23,1.45-3.35,2.07L105,52h4.84L124,0Z" style="fill:#474749"/><g id="033e8e1a-b4ea-476d-a6f8-fd36e5a3baea" data-name="LOGO-Copy-2"><polygon id="55901162-d9cb-403f-9705-080c338595fd" data-name="Fill-1" points="14.83 82.05 10.6 67.64 9.35 67.64 5.11 82.02 1.57 67 0 67.09 4.23 85 5.67 85 9.97 70.65 14.27 85 15.71 85 19.95 67.09 18.38 67 14.83 82.05" style="fill:#393938"/><polygon id="503a492c-6c2a-4f1a-b978-f65c746a19b6" data-name="Fill-2" points="26.59 67 26.59 85 36.56 85 36.56 83.49 28.13 83.49 28.13 77.22 34.43 77.22 34.43 75.71 28.13 75.71 28.13 68.51 36.56 68.51 36.56 67 26.59 67" style="fill:#393938"/><g id="3d0f2147-3f40-4c38-8696-34fab597ce5c" data-name="Group-55"><g id="512bc775-5033-4eed-998a-1382ae82106d" data-name="Group-5"><g style="mask:url(#6de3089d-71bd-43f8-a4a2-2868d4d56e59)"><path id="32bbf369-4d82-4f70-b2a4-e4e5a500bec7" data-name="Fill-3" d="M42,80.41,43.56,80a3.82,3.82,0,0,0,4,3.22c2.57,0,3.88-1.39,3.88-3.15,0-4.36-9.2-3.09-9.2-8.53,0-2.47,2.4-4.36,5.42-4.36s5.16,1.83,5.49,4.14l-1.51.4a3.75,3.75,0,0,0-3.91-3c-2.4,0-3.75,1.54-3.72,2.87.07,4.17,9.14,2.9,9.14,8.56,0,2.41-1.78,4.66-5.56,4.66-3.41,0-5.42-2.32-5.62-4.38" style="fill:#393938"/></g></g><polygon id="911cf271-b18d-43c1-bb41-8c54c2c8915f" data-name="Fill-6" points="69.17 68.82 64.44 68.82 64.44 84.64 62.8 84.64 62.8 68.82 58.06 68.82 58.06 67.34 69.17 67.34 69.17 68.82" style="fill:#393938"/><polygon id="ef35c76b-cb40-4fdc-9bc9-5cd7e6c56c9f" data-name="Fill-8" points="76.58 68.79 76.58 75.71 83.19 75.71 83.19 77.16 76.58 77.16 76.58 83.19 85.42 83.19 85.42 84.64 74.97 84.64 74.97 67.34 85.42 67.34 85.42 68.79 76.58 68.79" style="fill:#393938"/><polygon id="5457c2f2-c97f-41eb-91f5-aff4be882142" data-name="Fill-10" points="100.96 83.19 100.96 84.64 92.52 84.64 92.52 67.4 94.16 67.31 94.16 83.19 100.96 83.19" style="fill:#393938"/><polygon id="611bcba1-d289-4490-b82e-413b60f348de" data-name="Fill-12" points="111.04 77.28 111.04 84.64 109.39 84.64 109.39 77.28 103.81 67.37 105.48 67.28 110.18 75.71 110.25 75.71 114.92 67.28 116.59 67.37 111.04 77.28" style="fill:#393938"/><polygon id="803416a8-3889-48f7-a095-afb5c6c4ece3" data-name="Fill-14" points="135.93 67.4 135.93 84.64 134.39 84.64 124.43 69.96 124.43 84.64 122.78 84.64 122.78 67.43 124.46 67.34 134.29 81.92 134.29 67.4 135.93 67.4" style="fill:#393938"/><g id="1dc09edc-955b-4fc7-a3c0-f1ca77fe37eb" data-name="Group-18"><g style="mask:url(#0c39b9bc-0159-4c23-8d02-afc1dcd3d369)"><path id="a47ede69-8889-4128-979a-b0a6b38f5107" data-name="Fill-16" d="M143,76.27v-.56c0-5.75,3.81-8.53,7.46-8.53a6.88,6.88,0,0,1,6.24,3.74l-1.41.65a5.35,5.35,0,0,0-4.83-2.87c-2.76,0-5.82,2.07-5.82,7v.56c0,4.91,3.06,7,5.78,7a5.22,5.22,0,0,0,4.84-2.91l1.44.65a6.72,6.72,0,0,1-6.24,3.8c-3.65,0-7.46-2.78-7.46-8.52" style="fill:#393938"/></g></g><g id="fe0ab239-2e0d-48ba-9451-cb5a00593627" data-name="Group-21"><g style="mask:url(#395629b3-bf68-48a6-aef8-5a6e8b84fc00)"><polygon id="0b1c15f3-b1a4-4728-9132-1de37c6648c8" data-name="Fill-19" points="169.57 74.5 165.53 79.23 165.53 84.64 163.88 84.64 163.88 67.37 165.53 67.25 165.53 76.85 173.84 67.34 175.75 67.34 170.65 73.27 177.06 84.64 175.19 84.64 169.57 74.5" style="fill:#393938"/></g></g></g></g></g></g></g></svg>